M48
; DRILL file {KiCad 7.0.6-0} date 2024 March 12, Tuesday 16:57:44
; FORMAT={-:-/ absolute / inch / decimal}
; #@! TF.CreationDate,2024-03-12T16:57:44-04:00
; #@! TF.GenerationSoftware,Kicad,Pcbnew,7.0.6-0
; #@! TF.FileFunction,Plated,1,2,PTH
FMAT,2
INCH
; #@! TA.AperFunction,Plated,PTH,ViaDrill
T1C0.0157
; #@! TA.AperFunction,Plated,PTH,ComponentDrill
T2C0.0300
; #@! TA.AperFunction,Plated,PTH,ComponentDrill
T3C0.0315
; #@! TA.AperFunction,Plated,PTH,ComponentDrill
T4C0.0433
; #@! TA.AperFunction,Plated,PTH,ComponentDrill
T5C0.0472
%
G90
G05
T1
X5.5Y-3.7
X5.6Y-4.2
X5.7Y-3.4
X5.9Y-4.0
X5.9Y-4.3
X5.9403Y-3.9
X6.0Y-3.9
X6.0Y-4.0
X6.0Y-4.2788
X6.0Y-4.4
X6.0Y-3.9597
X6.1062Y-3.6115
X6.1206Y-3.8004
X6.1417Y-4.0417
X6.1477Y-3.7345
X6.1707Y-3.932
X6.2Y-3.2
X6.2694Y-3.939
X6.2846Y-3.9027
X6.285Y-3.8059
X6.285Y-3.7665
X6.3Y-3.4
X6.3Y-4.0
X6.3Y-4.1
X6.3798Y-3.8202
X6.3917Y-3.7487
X6.4Y-3.7
X6.4084Y-3.9
X6.5715Y-4.2
X6.6Y-3.9
X6.7Y-4.0
X6.7Y-4.2
X6.9086Y-3.7
T2
X5.3179Y-3.4785
X5.3179Y-3.5785
X5.3179Y-3.662
X5.3179Y-3.762
X5.3199Y-3.3124
X5.3203Y-3.3959
X5.4163Y-3.4904
X5.4163Y-3.7659
X5.4199Y-3.3124
X5.4203Y-3.3959
X6.8801Y-3.1124
X6.8801Y-3.2124
X6.8801Y-3.3124
X6.8801Y-3.588
X6.9801Y-3.1124
X6.9801Y-3.2124
X6.9801Y-3.3124
X6.9801Y-3.4124
X6.9801Y-3.5006
X6.9801Y-3.6006
T3
X5.5896Y-3.4195
X5.5896Y-3.6116
X5.7801Y-3.163
X5.7801Y-3.263
X5.7801Y-3.363
X5.7801Y-3.463
X5.7801Y-3.563
X5.7801Y-3.663
X5.7801Y-3.763
X5.7801Y-3.863
X5.7801Y-3.963
X5.7801Y-4.063
X5.7801Y-4.163
X5.7801Y-4.263
X5.7801Y-4.363
X5.7801Y-4.463
X6.0801Y-3.163
X6.0801Y-3.263
X6.0801Y-3.363
X6.0801Y-3.463
X6.0801Y-3.563
X6.0801Y-3.663
X6.0801Y-3.763
X6.0801Y-3.863
X6.0801Y-3.963
X6.0801Y-4.063
X6.0801Y-4.163
X6.0801Y-4.263
X6.0801Y-4.363
X6.0801Y-4.463
X6.3Y-4.3
X6.3Y-4.4
X6.4557Y-3.1557
X6.4557Y-3.2557
X6.4557Y-3.3557
X6.4557Y-3.4557
X6.4557Y-3.5557
X6.4557Y-3.6557
X6.4557Y-3.7557
X6.4557Y-3.8557
X6.4557Y-3.9557
X6.4557Y-4.0557
X6.4557Y-4.1557
X6.4557Y-4.2557
X6.4557Y-4.3557
X6.4557Y-4.4557
X6.7557Y-3.1557
X6.7557Y-3.2557
X6.7557Y-3.3557
X6.7557Y-3.4557
X6.7557Y-3.5557
X6.7557Y-3.6557
X6.7557Y-3.7557
X6.7557Y-3.8557
X6.7557Y-3.9557
X6.7557Y-4.0557
X6.7557Y-4.1557
X6.7557Y-4.2557
X6.7557Y-4.3557
X6.7557Y-4.4557
X6.9419Y-3.7778
X6.9419Y-3.9699
T4
X6.9801Y-4.2124
X6.9801Y-4.3124
X6.9801Y-4.4124
T5
X5.4321Y-3.9707
X5.4321Y-4.1675
X5.4321Y-4.3644
T0
M30
