%TF.GenerationSoftware,KiCad,Pcbnew,7.0.6-0*%
%TF.CreationDate,2024-03-12T16:57:41-04:00*%
%TF.ProjectId,Bai_channels,4261695f-6368-4616-9e6e-656c732e6b69,rev?*%
%TF.SameCoordinates,Original*%
%TF.FileFunction,Copper,L1,Top*%
%TF.FilePolarity,Positive*%
%FSLAX46Y46*%
G04 Gerber Fmt 4.6, Leading zero omitted, Abs format (unit mm)*
G04 Created by KiCad (PCBNEW 7.0.6-0) date 2024-03-12 16:57:41*
%MOMM*%
%LPD*%
G01*
G04 APERTURE LIST*
%TA.AperFunction,ComponentPad*%
%ADD10C,1.524000*%
%TD*%
%TA.AperFunction,ComponentPad*%
%ADD11C,1.500000*%
%TD*%
%TA.AperFunction,ComponentPad*%
%ADD12O,1.600000X1.600000*%
%TD*%
%TA.AperFunction,ComponentPad*%
%ADD13R,3.000000X3.000000*%
%TD*%
%TA.AperFunction,ComponentPad*%
%ADD14C,3.000000*%
%TD*%
%TA.AperFunction,ComponentPad*%
%ADD15R,1.600000X1.600000*%
%TD*%
%TA.AperFunction,ComponentPad*%
%ADD16R,2.000000X1.905000*%
%TD*%
%TA.AperFunction,ComponentPad*%
%ADD17O,2.000000X1.905000*%
%TD*%
%TA.AperFunction,SMDPad,CuDef*%
%ADD18R,1.524000X1.524000*%
%TD*%
%TA.AperFunction,SMDPad,CuDef*%
%ADD19R,0.720000X0.250000*%
%TD*%
%TA.AperFunction,SMDPad,CuDef*%
%ADD20R,0.570000X0.250000*%
%TD*%
%TA.AperFunction,SMDPad,CuDef*%
%ADD21R,0.950000X0.400000*%
%TD*%
%TA.AperFunction,ViaPad*%
%ADD22C,0.800000*%
%TD*%
%TA.AperFunction,Conductor*%
%ADD23C,0.250000*%
%TD*%
G04 APERTURE END LIST*
D10*
%TO.P,C7,1*%
%TO.N,Net-(U4-XTAL2{slash}PB7)*%
X177295000Y-81595000D03*
%TO.P,C7,2*%
%TO.N,Net-(U1-GND)*%
X174755000Y-81595000D03*
%TD*%
D11*
%TO.P,16MHz1,1,1*%
%TO.N,Net-(U3-XTAL1{slash}PB6)*%
X141975000Y-86855000D03*
%TO.P,16MHz1,2,2*%
%TO.N,Net-(U3-XTAL2{slash}PB7)*%
X141975000Y-91735000D03*
%TD*%
D12*
%TO.P,J2,1,Pin_1*%
%TO.N,Net-(J2-Pin_1)*%
X160020000Y-109220000D03*
%TO.P,J2,2,Pin_2*%
%TO.N,Net-(J2-Pin_2)*%
X160020000Y-111760000D03*
%TD*%
D13*
%TO.P,RV1,1,1*%
%TO.N,Net-(U1-GND)*%
X137975000Y-100855000D03*
D14*
%TO.P,RV1,2,2*%
%TO.N,Net-(U3-PC0)*%
X137975000Y-105855000D03*
%TO.P,RV1,3,3*%
%TO.N,Net-(U2-VO)*%
X137975000Y-110855000D03*
%TD*%
D15*
%TO.P,U4,1,~{RESET}/PC6*%
%TO.N,Net-(U4-~{RESET}{slash}PC6)*%
X163975000Y-80155000D03*
D12*
%TO.P,U4,2,PD0*%
%TO.N,unconnected-(U4-PD0-Pad2)*%
X163975000Y-82695000D03*
%TO.P,U4,3,PD1*%
%TO.N,unconnected-(U4-PD1-Pad3)*%
X163975000Y-85235000D03*
%TO.P,U4,4,PD2*%
%TO.N,unconnected-(U4-PD2-Pad4)*%
X163975000Y-87775000D03*
%TO.P,U4,5,PD3*%
%TO.N,unconnected-(U4-PD3-Pad5)*%
X163975000Y-90315000D03*
%TO.P,U4,6,PD4*%
%TO.N,unconnected-(U4-PD4-Pad6)*%
X163975000Y-92855000D03*
%TO.P,U4,7,VCC*%
%TO.N,Net-(U1-VCC)*%
X163975000Y-95395000D03*
%TO.P,U4,8,GND*%
%TO.N,Net-(U1-GND)*%
X163975000Y-97935000D03*
%TO.P,U4,9,XTAL1/PB6*%
%TO.N,Net-(U4-XTAL1{slash}PB6)*%
X163975000Y-100475000D03*
%TO.P,U4,10,XTAL2/PB7*%
%TO.N,Net-(U4-XTAL2{slash}PB7)*%
X163975000Y-103015000D03*
%TO.P,U4,11,PD5*%
%TO.N,unconnected-(U4-PD5-Pad11)*%
X163975000Y-105555000D03*
%TO.P,U4,12,PD6*%
%TO.N,unconnected-(U4-PD6-Pad12)*%
X163975000Y-108095000D03*
%TO.P,U4,13,PD7*%
%TO.N,unconnected-(U4-PD7-Pad13)*%
X163975000Y-110635000D03*
%TO.P,U4,14,PB0*%
%TO.N,Net-(U4-PB0)*%
X163975000Y-113175000D03*
%TO.P,U4,15,PB1*%
%TO.N,Net-(U4-PB1)*%
X171595000Y-113175000D03*
%TO.P,U4,16,PB2*%
%TO.N,Net-(U4-PB2)*%
X171595000Y-110635000D03*
%TO.P,U4,17,PB3*%
%TO.N,unconnected-(U4-PB3-Pad17)*%
X171595000Y-108095000D03*
%TO.P,U4,18,PB4*%
%TO.N,unconnected-(U4-PB4-Pad18)*%
X171595000Y-105555000D03*
%TO.P,U4,19,PB5*%
%TO.N,unconnected-(U4-PB5-Pad19)*%
X171595000Y-103015000D03*
%TO.P,U4,20,AVCC*%
%TO.N,Net-(U1-VCC)*%
X171595000Y-100475000D03*
%TO.P,U4,21,AREF*%
%TO.N,unconnected-(U4-AREF-Pad21)*%
X171595000Y-97935000D03*
%TO.P,U4,22,GND*%
%TO.N,Net-(U1-GND)*%
X171595000Y-95395000D03*
%TO.P,U4,23,PC0*%
%TO.N,Net-(U3-PC0)*%
X171595000Y-92855000D03*
%TO.P,U4,24,PC1*%
%TO.N,unconnected-(U4-PC1-Pad24)*%
X171595000Y-90315000D03*
%TO.P,U4,25,PC2*%
%TO.N,unconnected-(U4-PC2-Pad25)*%
X171595000Y-87775000D03*
%TO.P,U4,26,PC3*%
%TO.N,unconnected-(U4-PC3-Pad26)*%
X171595000Y-85235000D03*
%TO.P,U4,27,PC4*%
%TO.N,unconnected-(U4-PC4-Pad27)*%
X171595000Y-82695000D03*
%TO.P,U4,28,PC5*%
%TO.N,Net-(U3-PD7)*%
X171595000Y-80155000D03*
%TD*%
D15*
%TO.P,U3,1,~{RESET}/PC6*%
%TO.N,Net-(U3-~{RESET}{slash}PC6)*%
X154435000Y-113360000D03*
D12*
%TO.P,U3,2,PD0*%
%TO.N,Net-(U3-PD0)*%
X154435000Y-110820000D03*
%TO.P,U3,3,PD1*%
%TO.N,Net-(U3-PD1)*%
X154435000Y-108280000D03*
%TO.P,U3,4,PD2*%
%TO.N,Net-(U3-PD2)*%
X154435000Y-105740000D03*
%TO.P,U3,5,PD3*%
%TO.N,Net-(U3-PD3)*%
X154435000Y-103200000D03*
%TO.P,U3,6,PD4*%
%TO.N,Net-(U3-PD4)*%
X154435000Y-100660000D03*
%TO.P,U3,7,VCC*%
%TO.N,Net-(U2-VO)*%
X154435000Y-98120000D03*
%TO.P,U3,8,GND*%
%TO.N,Net-(U1-GND)*%
X154435000Y-95580000D03*
%TO.P,U3,9,XTAL1/PB6*%
%TO.N,Net-(U3-XTAL1{slash}PB6)*%
X154435000Y-93040000D03*
%TO.P,U3,10,XTAL2/PB7*%
%TO.N,Net-(U3-XTAL2{slash}PB7)*%
X154435000Y-90500000D03*
%TO.P,U3,11,PD5*%
%TO.N,Net-(U3-PD5)*%
X154435000Y-87960000D03*
%TO.P,U3,12,PD6*%
%TO.N,Net-(U3-PD6)*%
X154435000Y-85420000D03*
%TO.P,U3,13,PD7*%
%TO.N,Net-(U3-PD7)*%
X154435000Y-82880000D03*
%TO.P,U3,14,PB0*%
%TO.N,Net-(U3-PB0)*%
X154435000Y-80340000D03*
%TO.P,U3,15,PB1*%
%TO.N,Net-(U3-PB1)*%
X146815000Y-80340000D03*
%TO.P,U3,16,PB2*%
%TO.N,Net-(U3-PB2)*%
X146815000Y-82880000D03*
%TO.P,U3,17,PB3*%
%TO.N,Net-(U3-PB3)*%
X146815000Y-85420000D03*
%TO.P,U3,18,PB4*%
%TO.N,Net-(U3-PB4)*%
X146815000Y-87960000D03*
%TO.P,U3,19,PB5*%
%TO.N,Net-(U3-PB5)*%
X146815000Y-90500000D03*
%TO.P,U3,20,AVCC*%
%TO.N,Net-(U2-VO)*%
X146815000Y-93040000D03*
%TO.P,U3,21,AREF*%
%TO.N,unconnected-(U3-AREF-Pad21)*%
X146815000Y-95580000D03*
%TO.P,U3,22,GND*%
%TO.N,Net-(U1-GND)*%
X146815000Y-98120000D03*
%TO.P,U3,23,PC0*%
%TO.N,Net-(U3-PC0)*%
X146815000Y-100660000D03*
%TO.P,U3,24,PC1*%
%TO.N,unconnected-(U3-PC1-Pad24)*%
X146815000Y-103200000D03*
%TO.P,U3,25,PC2*%
%TO.N,unconnected-(U3-PC2-Pad25)*%
X146815000Y-105740000D03*
%TO.P,U3,26,PC3*%
%TO.N,unconnected-(U3-PC3-Pad26)*%
X146815000Y-108280000D03*
%TO.P,U3,27,PC4*%
%TO.N,unconnected-(U3-PC4-Pad27)*%
X146815000Y-110820000D03*
%TO.P,U3,28,PC5*%
%TO.N,unconnected-(U3-PC5-Pad28)*%
X146815000Y-113360000D03*
%TD*%
D10*
%TO.P,C8,1*%
%TO.N,Net-(U4-XTAL1{slash}PB6)*%
X177295000Y-91455000D03*
%TO.P,C8,2*%
%TO.N,Net-(U1-GND)*%
X177295000Y-88915000D03*
%TD*%
%TO.P,C1,1*%
%TO.N,Net-(U1-VCC)*%
X177295000Y-79055000D03*
%TO.P,C1,2*%
%TO.N,Net-(U1-GND)*%
X174755000Y-79055000D03*
%TD*%
%TO.P,C5,1*%
%TO.N,Net-(U3-XTAL2{slash}PB7)*%
X135075000Y-95555000D03*
%TO.P,C5,2*%
%TO.N,Net-(U1-GND)*%
X135075000Y-93015000D03*
%TD*%
D16*
%TO.P,U2,1,VI*%
%TO.N,Net-(U1-VCC)*%
X177295000Y-112075000D03*
D17*
%TO.P,U2,2,GND*%
%TO.N,Net-(U1-GND)*%
X177295000Y-109535000D03*
%TO.P,U2,3,VO*%
%TO.N,Net-(U2-VO)*%
X177295000Y-106995000D03*
%TD*%
D10*
%TO.P,C4,1*%
%TO.N,Net-(U1-VCC)*%
X177295000Y-86675000D03*
%TO.P,C4,2*%
%TO.N,Net-(U1-GND)*%
X177295000Y-84135000D03*
%TD*%
D11*
%TO.P,16MHz2,1,1*%
%TO.N,Net-(U4-XTAL1{slash}PB6)*%
X176325000Y-95955000D03*
%TO.P,16MHz2,2,2*%
%TO.N,Net-(U4-XTAL2{slash}PB7)*%
X176325000Y-100835000D03*
%TD*%
D10*
%TO.P,C3,1*%
%TO.N,Net-(U2-VO)*%
X137675000Y-86255000D03*
%TO.P,C3,2*%
%TO.N,Net-(U1-GND)*%
X135135000Y-86255000D03*
%TD*%
%TO.P,R2,1*%
%TO.N,Net-(U4-~{RESET}{slash}PC6)*%
X174755000Y-84135000D03*
%TO.P,R2,2*%
%TO.N,Net-(U1-VCC)*%
X174755000Y-91135000D03*
%TD*%
%TO.P,R1,1*%
%TO.N,Net-(U3-~{RESET}{slash}PC6)*%
X137575000Y-88655000D03*
%TO.P,R1,2*%
%TO.N,Net-(U2-VO)*%
X137575000Y-95655000D03*
%TD*%
D18*
%TO.P,U1,1,VCC*%
%TO.N,Net-(U1-VCC)*%
X141735000Y-81595000D03*
%TO.P,U1,2,GND*%
%TO.N,Net-(U1-GND)*%
X139195000Y-81595000D03*
%TD*%
D10*
%TO.P,C2,1*%
%TO.N,Net-(U2-VO)*%
X135125000Y-84135000D03*
%TO.P,C2,2*%
%TO.N,Net-(U1-GND)*%
X137665000Y-84135000D03*
%TD*%
D19*
%TO.P,J1,1,1*%
%TO.N,Net-(U3-PB0)*%
X158105001Y-94650001D03*
D20*
%TO.P,J1,2,2*%
%TO.N,Net-(U3-PB1)*%
X160505001Y-94899937D03*
D19*
%TO.P,J1,3,3*%
%TO.N,Net-(U3-PB2)*%
X158105001Y-95150001D03*
D20*
%TO.P,J1,4,4*%
%TO.N,Net-(U3-PB3)*%
X160505001Y-95399937D03*
D19*
%TO.P,J1,5,5*%
%TO.N,Net-(U3-PB4)*%
X158105001Y-95650001D03*
D20*
%TO.P,J1,6,6*%
%TO.N,Net-(U1-GND)*%
X160505001Y-95899937D03*
D19*
%TO.P,J1,7,7*%
%TO.N,Net-(U3-PD0)*%
X158105001Y-96150001D03*
D20*
%TO.P,J1,8,8*%
%TO.N,Net-(U3-PD1)*%
X160505001Y-96399937D03*
D19*
%TO.P,J1,9,9*%
%TO.N,unconnected-(J1-Pad9)*%
X158105001Y-96650001D03*
D20*
%TO.P,J1,10,10*%
%TO.N,Net-(U3-PD3)*%
X160505001Y-96899937D03*
D19*
%TO.P,J1,11,11*%
%TO.N,unconnected-(J1-Pad11)*%
X158105001Y-97150001D03*
D20*
%TO.P,J1,12,12*%
%TO.N,Net-(U3-PD5)*%
X160505001Y-97399937D03*
D19*
%TO.P,J1,13,13*%
%TO.N,unconnected-(J1-Pad13)*%
X158105001Y-97649993D03*
D20*
%TO.P,J1,14,14*%
%TO.N,Net-(U4-PB0)*%
X160505001Y-97899937D03*
D19*
%TO.P,J1,15,15*%
%TO.N,unconnected-(J1-Pad15)*%
X158105001Y-98150001D03*
D20*
%TO.P,J1,16,16*%
%TO.N,Net-(U3-PD6)*%
X160505001Y-98399937D03*
D19*
%TO.P,J1,17,17*%
%TO.N,Net-(J2-Pin_1)*%
X158105001Y-98650001D03*
D20*
%TO.P,J1,18,18*%
%TO.N,Net-(U4-PB1)*%
X160505001Y-98899937D03*
D19*
%TO.P,J1,19,19*%
%TO.N,Net-(U1-GND)*%
X158105001Y-99150001D03*
D20*
%TO.P,J1,20,20*%
%TO.N,Net-(U4-PB2)*%
X160505001Y-99399937D03*
D19*
%TO.P,J1,21,21*%
%TO.N,Net-(J2-Pin_2)*%
X158105001Y-99650001D03*
D20*
%TO.P,J1,22,22*%
%TO.N,Net-(U3-PD2)*%
X160505001Y-99899937D03*
D19*
%TO.P,J1,23,23*%
%TO.N,Net-(U1-GND)*%
X158105001Y-100150001D03*
D20*
%TO.P,J1,24,24*%
%TO.N,Net-(U3-PB5)*%
X160505001Y-100399937D03*
D19*
%TO.P,J1,25,25*%
%TO.N,Net-(U3-PD4)*%
X158105001Y-100650001D03*
D21*
%TO.P,J1,P1,P1*%
%TO.N,unconnected-(J1-PadP1)*%
X158370002Y-93980000D03*
%TO.P,J1,P2,P2*%
%TO.N,unconnected-(J1-PadP2)*%
X158370002Y-101319986D03*
%TD*%
D10*
%TO.P,C6,1*%
%TO.N,Net-(U3-XTAL1{slash}PB6)*%
X135075000Y-88355000D03*
%TO.P,C6,2*%
%TO.N,Net-(U1-GND)*%
X135075000Y-90895000D03*
%TD*%
D22*
%TO.N,Net-(U3-XTAL2{slash}PB7)*%
X144780000Y-86360000D03*
%TO.N,Net-(U1-GND)*%
X175479500Y-93980000D03*
X152400000Y-99060000D03*
X159638717Y-95670140D03*
%TO.N,Net-(U2-VO)*%
X150884600Y-99060000D03*
%TO.N,Net-(U3-PB0)*%
X157480000Y-81280000D03*
%TO.N,Net-(U3-PB1)*%
X162560000Y-93980000D03*
%TO.N,Net-(U3-PB3)*%
X162348411Y-95216188D03*
%TO.N,Net-(U3-PB4)*%
X156151312Y-94855912D03*
%TO.N,Net-(U3-PB5)*%
X159243475Y-100050406D03*
X155999800Y-102659800D03*
X152400000Y-101600000D03*
%TO.N,Net-(U3-PD0)*%
X155463250Y-96529372D03*
X152400000Y-108680500D03*
X152400884Y-100576286D03*
%TO.N,Net-(U3-PD1)*%
X162047700Y-97032300D03*
%TO.N,Net-(U3-PD3)*%
X159638226Y-96669642D03*
%TO.N,Net-(U3-PD5)*%
X162772200Y-99060000D03*
X155097331Y-91732853D03*
%TO.N,Net-(U3-PD6)*%
X160020000Y-86360000D03*
%TO.N,Net-(U4-PB0)*%
X167640000Y-99060000D03*
%TO.N,Net-(U4-PB1)*%
X170180000Y-101600000D03*
%TO.N,Net-(U4-PB2)*%
X159629959Y-99128650D03*
X166915500Y-106680000D03*
X170180000Y-106680000D03*
X160020000Y-101600000D03*
X160020000Y-104140000D03*
%TO.N,Net-(U3-~{RESET}{slash}PC6)*%
X139700000Y-93980000D03*
X142240000Y-106680000D03*
%TO.N,Net-(J2-Pin_1)*%
X149860000Y-109220000D03*
X149860000Y-101600000D03*
%TO.N,Net-(J2-Pin_2)*%
X156736389Y-99874012D03*
X152400000Y-111760000D03*
%TD*%
D23*
%TO.N,Net-(U3-XTAL1{slash}PB6)*%
X150480000Y-89085000D02*
X154435000Y-93040000D01*
X144205000Y-89085000D02*
X150480000Y-89085000D01*
X141975000Y-86855000D02*
X144205000Y-89085000D01*
%TO.N,Net-(U3-XTAL2{slash}PB7)*%
X149473604Y-86545000D02*
X153428604Y-90500000D01*
X144965000Y-86545000D02*
X149473604Y-86545000D01*
X144780000Y-86360000D02*
X144965000Y-86545000D01*
X153428604Y-90500000D02*
X154435000Y-90500000D01*
%TO.N,Net-(U1-VCC)*%
X174755000Y-97315000D02*
X171595000Y-100475000D01*
X166515000Y-95395000D02*
X163975000Y-95395000D01*
X141735000Y-81595000D02*
X145362000Y-77968000D01*
X171595000Y-100475000D02*
X166515000Y-95395000D01*
X176208000Y-77968000D02*
X177295000Y-79055000D01*
X177295000Y-86675000D02*
X174755000Y-89215000D01*
X178382000Y-85588000D02*
X177295000Y-86675000D01*
X174755000Y-91135000D02*
X174755000Y-97315000D01*
X174755000Y-89215000D02*
X174755000Y-91135000D01*
X177295000Y-79055000D02*
X178382000Y-80142000D01*
X178382000Y-80142000D02*
X178382000Y-85588000D01*
X145362000Y-77968000D02*
X176208000Y-77968000D01*
%TO.N,Net-(U4-XTAL1{slash}PB6)*%
X177295000Y-91455000D02*
X177295000Y-94985000D01*
X177295000Y-94985000D02*
X176325000Y-95955000D01*
%TO.N,Net-(U1-GND)*%
X152400000Y-99060000D02*
X152585000Y-99245000D01*
X157030000Y-100650001D02*
X156305992Y-100650001D01*
X154995990Y-99150001D02*
X154900991Y-99245000D01*
X137975000Y-100855000D02*
X144080000Y-100855000D01*
X175842000Y-93398000D02*
X175479500Y-93760500D01*
X158105001Y-99150001D02*
X154995990Y-99150001D01*
X177295000Y-109535000D02*
X175970000Y-108210000D01*
X175970000Y-108210000D02*
X175970000Y-103430000D01*
X174755000Y-81595000D02*
X177295000Y-84135000D01*
X178382000Y-101018000D02*
X178382000Y-90002000D01*
X178382000Y-90002000D02*
X177295000Y-88915000D01*
X175479500Y-93760500D02*
X175479500Y-93980000D01*
X161939937Y-95899937D02*
X163975000Y-97935000D01*
X137665000Y-84135000D02*
X139195000Y-82605000D01*
X177295000Y-88915000D02*
X175842000Y-90368000D01*
X139195000Y-82605000D02*
X139195000Y-81595000D01*
X159868514Y-95899937D02*
X159638717Y-95670140D01*
X175970000Y-103430000D02*
X178382000Y-101018000D01*
X160505001Y-95899937D02*
X161939937Y-95899937D01*
X158105001Y-100150001D02*
X157530000Y-100150001D01*
X157530000Y-100150001D02*
X157030000Y-100650001D01*
X174755000Y-79055000D02*
X174755000Y-81595000D01*
X146815000Y-98120000D02*
X149355000Y-95580000D01*
X160505001Y-95899937D02*
X159868514Y-95899937D01*
X175842000Y-90368000D02*
X175842000Y-93398000D01*
X149355000Y-95580000D02*
X154435000Y-95580000D01*
X156305992Y-100650001D02*
X154900991Y-99245000D01*
X152585000Y-99245000D02*
X154900991Y-99245000D01*
X144080000Y-100855000D02*
X146815000Y-98120000D01*
%TO.N,Net-(U2-VO)*%
X136488000Y-94568000D02*
X137575000Y-95655000D01*
X154435000Y-98120000D02*
X151824600Y-98120000D01*
X151824600Y-98120000D02*
X150884600Y-99060000D01*
X137675000Y-86255000D02*
X136488000Y-87442000D01*
X136150000Y-109030000D02*
X136150000Y-97080000D01*
X144200000Y-95655000D02*
X146815000Y-93040000D01*
X137575000Y-95655000D02*
X144200000Y-95655000D01*
X137975000Y-110855000D02*
X136150000Y-109030000D01*
X136488000Y-87442000D02*
X136488000Y-94568000D01*
X135125000Y-84135000D02*
X137245000Y-86255000D01*
X136150000Y-97080000D02*
X137575000Y-95655000D01*
X137245000Y-86255000D02*
X137675000Y-86255000D01*
%TO.N,Net-(U3-PB0)*%
X157480000Y-94260000D02*
X157480000Y-81280000D01*
X158105001Y-94650001D02*
X157870001Y-94650001D01*
X157870001Y-94650001D02*
X157480000Y-94260000D01*
%TO.N,Net-(U3-PB1)*%
X161640063Y-94899937D02*
X162560000Y-93980000D01*
X160505001Y-94899937D02*
X161640063Y-94899937D01*
%TO.N,Net-(U3-PB3)*%
X160505001Y-95399937D02*
X162164662Y-95399937D01*
X162164662Y-95399937D02*
X162348411Y-95216188D01*
%TO.N,Net-(U3-PB4)*%
X156151312Y-95415321D02*
X156151312Y-94855912D01*
X158105001Y-95650001D02*
X156385992Y-95650001D01*
X156385992Y-95650001D02*
X156151312Y-95415321D01*
%TO.N,Net-(U3-PB5)*%
X159593006Y-100399937D02*
X159243475Y-100050406D01*
X155999800Y-102659800D02*
X155125000Y-101785000D01*
X160505001Y-100399937D02*
X159593006Y-100399937D01*
X155125000Y-101785000D02*
X152585000Y-101785000D01*
X152585000Y-101785000D02*
X152400000Y-101600000D01*
%TO.N,Net-(U3-PD0)*%
X151675000Y-101299695D02*
X151675000Y-107955500D01*
X152398409Y-100576286D02*
X151675000Y-101299695D01*
X151675000Y-107955500D02*
X152400000Y-108680500D01*
X155842621Y-96150001D02*
X155463250Y-96529372D01*
X158105001Y-96150001D02*
X155842621Y-96150001D01*
X152400884Y-100576286D02*
X152398409Y-100576286D01*
%TO.N,Net-(U3-PD1)*%
X160505001Y-96399937D02*
X161415337Y-96399937D01*
X161415337Y-96399937D02*
X162047700Y-97032300D01*
%TO.N,Net-(U3-PD2)*%
X159445305Y-105740000D02*
X154435000Y-105740000D01*
X161115001Y-104070304D02*
X159445305Y-105740000D01*
X161115001Y-99949937D02*
X161115001Y-104070304D01*
X160505001Y-99899937D02*
X161065001Y-99899937D01*
X161065001Y-99899937D02*
X161115001Y-99949937D01*
%TO.N,Net-(U3-PD3)*%
X159868521Y-96899937D02*
X159638226Y-96669642D01*
X160505001Y-96899937D02*
X159868521Y-96899937D01*
%TO.N,Net-(U3-PD4)*%
X158105001Y-100650001D02*
X157870001Y-100650001D01*
X154444999Y-100650001D02*
X154435000Y-100660000D01*
X157215000Y-101335000D02*
X157899999Y-100650001D01*
X157899999Y-100650001D02*
X158105001Y-100650001D01*
X154938604Y-101335000D02*
X154435000Y-100831396D01*
X154435000Y-100831396D02*
X154435000Y-100660000D01*
X157215000Y-101335000D02*
X154938604Y-101335000D01*
%TO.N,Net-(U3-PD5)*%
X155560000Y-89085000D02*
X154435000Y-87960000D01*
X155097331Y-91732853D02*
X155560000Y-91270184D01*
X160505001Y-97399937D02*
X161112137Y-97399937D01*
X155560000Y-91270184D02*
X155560000Y-89085000D01*
X161112137Y-97399937D02*
X162772200Y-99060000D01*
%TO.N,Net-(U3-PD6)*%
X158790001Y-97244937D02*
X158790001Y-94885001D01*
X160020000Y-93655002D02*
X160020000Y-86360000D01*
X159945001Y-98399937D02*
X158790001Y-97244937D01*
X158790001Y-94885001D02*
X160020000Y-93655002D01*
X160505001Y-98399937D02*
X159945001Y-98399937D01*
%TO.N,Net-(U4-PB0)*%
X160505001Y-97899937D02*
X160975741Y-97899937D01*
X163797505Y-99060000D02*
X167640000Y-99060000D01*
X160975741Y-97899937D02*
X162047200Y-98971396D01*
X162047200Y-98971396D02*
X162047200Y-99360305D01*
X162471895Y-99785000D02*
X163072505Y-99785000D01*
X162047200Y-99360305D02*
X162471895Y-99785000D01*
X163072505Y-99785000D02*
X163797505Y-99060000D01*
%TO.N,Net-(U4-PB1)*%
X160505001Y-98899937D02*
X161065001Y-98899937D01*
X162560000Y-101600000D02*
X170180000Y-101600000D01*
X161065001Y-98899937D02*
X161565001Y-99399937D01*
X161565001Y-99399937D02*
X161565001Y-100605001D01*
X161565001Y-100605001D02*
X162560000Y-101600000D01*
%TO.N,Net-(U4-PB2)*%
X160020000Y-101600000D02*
X160020000Y-104140000D01*
X159901246Y-99399937D02*
X159629959Y-99128650D01*
X160505001Y-99399937D02*
X159901246Y-99399937D01*
X166915500Y-106680000D02*
X170180000Y-106680000D01*
%TO.N,Net-(U3-~{RESET}{slash}PC6)*%
X147280991Y-111945000D02*
X146349009Y-111945000D01*
X139700000Y-93980000D02*
X137575000Y-91855000D01*
X142240000Y-107835991D02*
X142240000Y-106680000D01*
X146349009Y-111945000D02*
X142240000Y-107835991D01*
X137575000Y-91855000D02*
X137575000Y-88655000D01*
X148695991Y-113360000D02*
X147280991Y-111945000D01*
X154435000Y-113360000D02*
X148695991Y-113360000D01*
%TO.N,Net-(U4-~{RESET}{slash}PC6)*%
X174730000Y-84110000D02*
X167930000Y-84110000D01*
X174755000Y-84135000D02*
X174730000Y-84110000D01*
X167930000Y-84110000D02*
X163975000Y-80155000D01*
%TO.N,Net-(U3-PC0)*%
X137975000Y-105855000D02*
X141620000Y-105855000D01*
X141620000Y-105855000D02*
X146815000Y-100660000D01*
%TO.N,Net-(U3-PD7)*%
X171595000Y-80155000D02*
X170470000Y-79030000D01*
X158285000Y-79030000D02*
X154435000Y-82880000D01*
X170470000Y-79030000D02*
X158285000Y-79030000D01*
%TO.N,Net-(U3-PB2)*%
X154900991Y-86545000D02*
X150480000Y-86545000D01*
X155012996Y-86432995D02*
X154900991Y-86545000D01*
X156010000Y-93690000D02*
X156010000Y-87429999D01*
X150480000Y-86545000D02*
X146815000Y-82880000D01*
X158105001Y-95150001D02*
X157470001Y-95150001D01*
X157470001Y-95150001D02*
X156010000Y-93690000D01*
X156010000Y-87429999D02*
X155012996Y-86432995D01*
%TO.N,Net-(J2-Pin_1)*%
X149860000Y-99060000D02*
X149860000Y-101600000D01*
X154900991Y-96995000D02*
X151925000Y-96995000D01*
X150045000Y-109405000D02*
X158260000Y-109405000D01*
X156555992Y-98650001D02*
X154900991Y-96995000D01*
X158445000Y-109220000D02*
X160020000Y-109220000D01*
X151925000Y-96995000D02*
X149860000Y-99060000D01*
X158260000Y-109405000D02*
X158445000Y-109220000D01*
X158105001Y-98650001D02*
X156555992Y-98650001D01*
X149860000Y-109220000D02*
X150045000Y-109405000D01*
%TO.N,Net-(J2-Pin_2)*%
X158795000Y-111760000D02*
X160020000Y-111760000D01*
X158105001Y-99650001D02*
X156960400Y-99650001D01*
X156960400Y-99650001D02*
X156736389Y-99874012D01*
X152400000Y-111760000D02*
X152585000Y-111945000D01*
X152585000Y-111945000D02*
X157295000Y-111945000D01*
X157295000Y-111945000D02*
X157460000Y-112110000D01*
X158445000Y-112110000D02*
X158795000Y-111760000D01*
X157460000Y-112110000D02*
X158445000Y-112110000D01*
%TD*%
M02*
